<svg width="100" height="100" viewBox="0 0 100 100" fill="none" xmlns="http://www.w3.org/2000/svg">
<path d="M14 99.5H13C11.6193 99.5 10.5 98.3807 10.5 97V11C10.5 9.61929 11.6193 8.5 13 8.5H14C15.3807 8.5 16.5 9.61929 16.5 11V97C16.5 98.3807 15.3807 99.5 14 99.5Z" fill="#808080" stroke="black"/>
<path d="M77.3338 8.5H23C21.6193 8.5 20.5 9.61929 20.5 11V41C20.5 42.3807 21.6193 43.5 23 43.5H77.3338C79.9184 43.5 80.8038 40.057 78.5398 38.8101L60.8462 29.0658C58.4308 27.7356 58.4308 24.2644 60.8462 22.9342L78.5398 13.1899C80.8038 11.943 79.9184 8.5 77.3338 8.5Z" fill="#C14141" stroke="black"/>
<path d="M16 5.5H11C9.61929 5.5 8.5 4.38071 8.5 3C8.5 1.61929 9.61929 0.5 11 0.5H16C17.3807 0.5 18.5 1.61929 18.5 3C18.5 4.38071 17.3807 5.5 16 5.5Z" fill="#808080" stroke="black"/>
</svg>
