<svg width="100" height="100" viewBox="0 0 100 100" fill="none" xmlns="http://www.w3.org/2000/svg">
<g clip-path="url(#clip0_5_4)">
<path d="M45 95C45 97.7614 47.2386 100 50 100C52.7614 100 55 97.7614 55 95V55H95C97.7614 55 100 52.7614 100 50C100 47.2386 97.7614 45 95 45H55V5C55 2.23858 52.7614 0 50 0C47.2386 0 45 2.23858 45 5V45H5C2.23858 45 0 47.2386 0 50C0 52.7614 2.23858 55 5 55H45V95Z" fill="#808080"/>
</g>
<defs>
<clipPath id="clip0_5_4">
<rect width="100" height="100" fill="white"/>
</clipPath>
</defs>
</svg>
