<svg width="100" height="100" viewBox="0 0 100 100" fill="none" xmlns="http://www.w3.org/2000/svg">
<g clip-path="url(#clip0_5_10)">
<path d="M100 50C100 77.6142 77.6142 100 50 100C22.3858 100 0 77.6142 0 50C0 22.3858 22.3858 0 50 0C77.6142 0 100 22.3858 100 50Z" fill="#808080"/>
<path d="M96 50C96 75.4051 75.4051 96 50 96C24.5949 96 4 75.4051 4 50C4 24.5949 24.5949 4 50 4C75.4051 4 96 24.5949 96 50Z" fill="white"/>
<path d="M82 73.3549V33.6785C82 33.6785 82 31.9275 80.72 31.0334C79.44 30.1393 52.4013 10.9844 51.4506 10.2422C50.5 9.5 49.5 9.50005 48.5494 10.2422C47.5987 10.9843 20.56 30.0415 19.28 31.0334C18 32.0253 18 33.6785 18 33.6785V73.3549C18 74.8158 19.1462 76 20.56 76H25.68V42.9363C25.68 41.4755 26.8262 40.2912 28.24 40.2912H71.76C73.1739 40.2912 74.32 41.4755 74.32 42.9363V76H79.44C80.8539 76 82 74.8158 82 73.3549Z" fill="#808080"/>
<path d="M49.36 73.7987V63.4273C49.36 62.2817 48.4287 61.353 47.28 61.353H43.12V64.1187C43.12 65.2643 42.1887 66.193 41.04 66.193C39.8912 66.193 38.96 65.2643 38.96 64.1187V61.353H34.8C33.6512 61.353 32.72 62.2817 32.72 63.4273V73.7987C32.72 74.9443 33.6512 75.873 34.8 75.873H47.28C48.4287 75.873 49.36 74.9443 49.36 73.7987Z" fill="#808080"/>
<path d="M67.28 73.7987V63.4273C67.28 62.2817 66.3487 61.353 65.2 61.353H61.04V64.1187C61.04 65.2643 60.1087 66.193 58.96 66.193C57.8112 66.193 56.88 65.2643 56.88 64.1187V61.353H52.72C51.5712 61.353 50.64 62.2817 50.64 63.4273V73.7987C50.64 74.9443 51.5712 75.873 52.72 75.873H65.2C66.3487 75.873 67.28 74.9443 67.28 73.7987Z" fill="#808080"/>
<path d="M58.32 57.9587V47.5872C58.32 46.4416 57.3887 45.513 56.24 45.513H52.08V48.2787C52.08 49.4243 51.1487 50.353 50 50.353C48.8512 50.353 47.92 49.4243 47.92 48.2787V45.513H43.76C42.6112 45.513 41.68 46.4416 41.68 47.5872V57.9587C41.68 59.1043 42.6112 60.033 43.76 60.033H56.24C57.3887 60.033 58.32 59.1043 58.32 57.9587Z" fill="#808080"/>
</g>
<defs>
<clipPath id="clip0_5_10">
<rect width="100" height="100" fill="white"/>
</clipPath>
</defs>
</svg>
